<?xml version="1.0" encoding="utf-8"?>
<!-- Generator: Adobe Illustrator 21.0.0, SVG Export Plug-In . SVG Version: 6.00 Build 0)  -->
<svg version="1.1" id="Interoute_x5F_VDC" xmlns="http://www.w3.org/2000/svg" xmlns:xlink="http://www.w3.org/1999/xlink" x="0px"
	 y="0px" viewBox="0 0 100 100" style="enable-background:new 0 0 100 100;" xml:space="preserve">
<style type="text/css">
	.st0{fill:#040405;}
	.st1{fill:#090A0A;}
	.st2{fill:#080909;}
	.st3{fill:#0E0E0E;}
	.st4{fill:#0E0E0F;}
	.st5{fill:#101111;}
	.st6{fill:#0D0C0D;}
	.st7{fill:#111112;}
	.st8{fill:#0F1010;}
	.st9{fill:#161616;}
	.st10{fill:#0D0D0E;}
	.st11{fill:#AF2826;}
	.st12{fill:#F5BB1B;}
	.st13{fill:#E86625;}
	.st14{fill:#050606;}
</style>
<g id="Interoute-VDC-logo_xA0_Image_1_">
	<g>
		<path class="st0" d="M85.1,80.2c-23.2,0-46.4,0-69.7,0c0-23.3,0-46.6,0-69.9c23.2,0,46.5,0,69.7,0C85.1,33.6,85.1,56.9,85.1,80.2z
			 M43.8,22.6c1.3,3.3-0.2,5.9-1.9,7.1c-1.1,0.7-2.2,1.1-3.5,1c-1.8-0.1-3.3-0.9-4.5-2.4c-1.1,1.2-2.1,2.4-3.1,3.7
			c3,1.4,4,4.4,3.3,6.8c-0.4,1.2-1,2.2-2.1,3c-1.5,1.1-3.2,1.4-5.1,0.9c0,1.7,0,3.3,0,4.9c1.4-0.4,2.8-0.3,4,0.3
			c1.3,0.6,2.2,1.6,2.8,2.9c0.5,1.1,0.6,2.3,0.3,3.5c-0.4,1.8-1.5,3.1-3.3,4c1.1,1.3,2.1,2.5,3.2,3.7c2.2-3,5.6-3,7.6-1.8
			c1.1,0.6,1.9,1.5,2.4,2.7c0.7,1.6,0.6,3.2-0.1,4.8c1.6,0.3,3.1,0.5,4.7,0.8c-0.1-1.6,0.3-2.9,1.1-4.1c0.9-1.2,2.1-1.9,3.5-2.2
			c2.3-0.4,5.4,0.6,6.6,4.2c1.4-0.8,2.7-1.6,4.1-2.4c-2.3-2.4-2.2-5.5-0.6-7.6c1.4-1.9,4.6-3.2,7.9-1.2c0.5-1.5,1.1-2.9,1.6-4.4
			c-3.4-1-5.1-2.9-5.1-5.7c0-1.3,0.4-2.4,1.1-3.4c1-1.3,2.3-2,4-2.3c-0.5-1.5-1.1-2.9-1.6-4.4c-2.8,1.8-5.8,1-7.4-0.8
			c-0.9-0.9-1.4-2-1.5-3.3c-0.2-1.8,0.4-3.3,1.6-4.7c-1.4-0.8-2.7-1.6-4.1-2.4c-1,3-3.6,4.4-6.1,4.2c-1.2-0.1-2.3-0.6-3.2-1.4
			c-1.4-1.3-2-2.9-2-4.8C46.9,22.1,45.3,22.4,43.8,22.6z M54.2,25.4c1.7,0,3-1.3,3-3c0-1.7-1.3-3-3-3c-1.7,0-3,1.3-3,3
			C51.3,24.1,52.5,25.4,54.2,25.4z M28.5,40.2c1.6,0,3-1.3,3-3c0-1.6-1.4-3-3-3c-1.6,0-3,1.4-3,3C25.5,38.9,26.9,40.2,28.5,40.2z
			 M35.6,25c0,1.6,1.3,3,3,3c1.6,0,3-1.4,3-3c0-1.6-1.4-3-3-3C36.9,22.1,35.6,23.4,35.6,25z"/>
		<path class="st1" d="M71.7,89.6c0-2.5,0-4.9,0-7.4c0.1,0,0.2,0,0.3,0c1.1,0,2.2,0,3.3,0.1c1.5,0.2,2.4,1,2.6,2.5
			c0.1,0.8,0.1,1.6,0,2.3c-0.3,1.5-1.4,2.4-3.1,2.5C73.8,89.7,72.8,89.6,71.7,89.6z M73.3,88.2c1.7,0.1,2.5-0.2,2.8-0.9
			c0.4-1,0.5-2.1-0.1-3.1c-0.6-0.9-1.7-0.7-2.7-0.8c0,1.5,0,3,0,4.5C73.3,88,73.3,88.1,73.3,88.2z"/>
		<path class="st2" d="M63.5,82.1c0.6,0,1.2,0,1.8,0c0.6,1.8,1.2,3.7,1.8,5.6c0.1-0.3,0.2-0.6,0.3-0.9c0.5-1.5,0.9-2.9,1.4-4.4
			c0.1-0.2,0.2-0.3,0.5-0.3c0.5,0,1,0,1.5,0c0,0.1,0,0.2,0,0.3c-0.9,2.3-1.7,4.5-2.6,6.8c-0.1,0.3-0.2,0.4-0.5,0.3
			c-0.5,0-1,0.1-1.4-0.1c-0.3-0.2-0.4-0.8-0.5-1.2c-0.7-1.9-1.4-3.8-2.1-5.7C63.6,82.4,63.5,82.3,63.5,82.1z"/>
		<path class="st2" d="M84.4,87.4c0.2,0.3,0.5,0.7,0.7,1.1c-1,0.6-2,1.1-3.2,1.1c-1.3,0-2.3-0.7-2.7-1.9c-0.4-1.2-0.4-2.5,0-3.7
			c0.5-1.5,1.8-2.3,3.5-2c0.9,0.2,1.6,0.6,2.4,1c-0.3,0.4-0.5,0.8-0.7,1.1c-0.5-0.2-1-0.5-1.6-0.6c-1.1-0.4-1.9,0.1-2.1,1.2
			c-0.2,0.8-0.2,1.6,0.1,2.4c0.3,0.8,1,1.2,1.9,0.9C83.2,87.9,83.8,87.7,84.4,87.4z"/>
		<path class="st3" d="M61.3,87c-1.4,0-2.8,0-4.1,0c-0.1,1.4,0.9,2.4,2.3,2c0.5-0.2,1-0.4,1.6-0.7c0.1,0.1,0.2,0.3,0.3,0.4
			c-0.7,0.5-1.4,0.8-2.2,0.9c-1.1,0.1-2.1-0.5-2.5-1.5c-0.3-0.9-0.4-1.9,0-2.8c0.5-1.2,1.6-1.7,2.9-1.5c1,0.2,1.7,1,1.8,2.3
			C61.3,86.3,61.3,86.6,61.3,87z M60.6,86.3c0-0.7,0-1.5-0.7-1.9c-0.6-0.4-1.3-0.3-1.9,0.1c-0.6,0.4-0.8,1.1-0.9,1.8
			C58.3,86.3,59.4,86.3,60.6,86.3z"/>
		<path class="st4" d="M34,88.3c0.1,0.2,0.2,0.3,0.4,0.5c-0.8,0.5-1.7,1-2.7,0.9c-0.9-0.1-1.6-0.6-2-1.4c-0.4-1-0.4-2.1,0-3.1
			c0.4-0.9,1.1-1.4,2-1.4c0.9-0.1,1.6,0.1,2.2,0.9c0.5,0.7,0.5,1.5,0.4,2.3c-1.4,0-2.7,0-4.2,0c0.1,0.4,0.1,0.7,0.3,1
			c0.3,0.9,1,1.2,1.9,1c0.3-0.1,0.6-0.2,0.9-0.3C33.5,88.6,33.7,88.4,34,88.3z M33.6,86.3c0.1-1.4-0.6-2.2-1.7-2.1
			c-1,0.1-1.8,1-1.7,2.1c1,0,2,0,3,0C33.4,86.3,33.5,86.3,33.6,86.3z"/>
		<path class="st4" d="M44.7,86.6c0,0.8-0.2,1.5-0.7,2.2c-0.9,1.2-3.7,1.3-4.3-0.7c-0.3-0.9-0.3-1.8,0-2.8c0.4-1.1,1.3-1.7,2.5-1.6
			c1.2,0.1,2.1,0.7,2.4,1.9C44.6,85.9,44.6,86.3,44.7,86.6z M43.9,86.6c-0.1-0.3-0.1-0.7-0.2-1.1c-0.3-0.8-0.8-1.1-1.6-1.2
			c-0.9,0-1.4,0.3-1.7,1.1c-0.3,0.9-0.3,1.7,0,2.6c0.2,0.5,0.6,0.9,1.1,1c1.2,0.3,2.1-0.3,2.3-1.5C43.9,87.2,43.9,86.9,43.9,86.6z"
			/>
		<path class="st5" d="M24,89.5c-0.2,0-0.5,0-0.7,0c0-0.8,0-1.6,0-2.4c0-0.6,0-1.2,0-1.7c0-0.8-0.5-1.3-1.3-1.1
			c-0.6,0.2-1.2,0.5-1.8,0.9c-0.1,0.1-0.2,0.3-0.2,0.5c0,1.3,0,2.5,0,3.8c-0.2,0-0.4,0-0.7,0c0-1.9,0-3.8,0-5.7c0.2,0,0.4,0,0.7,0
			c0,0.2,0,0.5,0,0.7c0.7-0.3,1.3-0.6,2-0.7c1.2-0.3,2,0.3,2,1.6C24,86.7,24,88.1,24,89.5z"/>
		<path class="st6" d="M50.8,89.5c-0.2,0-0.4,0-0.7,0c0-0.2,0-0.5,0-0.8c-0.2,0.1-0.3,0.2-0.4,0.3c-0.6,0.4-1.3,0.7-2,0.7
			c-0.9,0-1.5-0.5-1.5-1.4c0-1.5,0-2.9,0-4.4c0.2,0,0.4,0,0.7,0c0,0.6,0,1.2,0,1.8c0,0.8,0,1.6,0,2.3c0,0.8,0.4,1.2,1.2,1.1
			c0.8-0.1,1.4-0.5,2-0.9c0.1-0.1,0.1-0.3,0.1-0.4c0-1.3,0-2.6,0-3.9c0.2,0,0.4,0,0.7,0C50.8,85.7,50.8,87.6,50.8,89.5z"/>
		<path class="st7" d="M53.6,83.8c0.6,0,1,0,1.6,0c0,0.2,0,0.4,0,0.6c-0.5,0-1,0-1.5,0c0,0.1,0,0.3,0,0.4c0,1.2,0,2.3,0,3.5
			c0,0.8,0.2,1,1,0.8c0.2-0.1,0.5-0.1,0.7-0.2c0.1,0.2,0.2,0.3,0.3,0.5c-0.7,0.3-1.3,0.6-2,0.3c-0.3-0.1-0.5-0.5-0.6-0.7
			c-0.1-0.4-0.1-0.8-0.1-1.2c0-1,0-2.1,0-3.2c-0.3,0-0.5,0-0.8,0c0-0.2,0-0.4,0-0.6c0.2,0,0.5,0,0.8,0c0-0.3,0-0.6,0-0.9
			c0-0.6,0-0.6,0.7-0.8C53.6,82.7,53.6,83.2,53.6,83.8z"/>
		<path class="st8" d="M26,83.8c0-0.3,0-0.6,0-0.9c0-0.6,0-0.6,0.7-0.7c0,0.5,0,1,0,1.6c0.5,0,1,0,1.5,0c0,0.2,0,0.4,0,0.6
			c-0.5,0-1,0-1.5,0c0,1.4,0,2.8,0,4.2c0,0.4,0.3,0.5,0.6,0.5c0.4-0.1,0.7-0.2,1.1-0.3c0.1,0.1,0.2,0.3,0.3,0.5
			c-0.6,0.3-1.2,0.5-1.8,0.4c-0.6-0.1-0.9-0.5-0.9-1.2c0-1.2,0-2.4,0-3.6c0-0.1,0-0.3,0-0.5c-0.3,0-0.5,0-0.8,0c0-0.2,0-0.4,0-0.6
			C25.5,83.8,25.7,83.8,26,83.8z"/>
		<path class="st9" d="M17.3,89.5c-0.2,0-0.5,0-0.7,0c0-2.5,0-5,0-7.6c0.2,0,0.5,0,0.7,0C17.3,84.4,17.3,86.9,17.3,89.5z"/>
		<path class="st10" d="M36.6,89.5c-0.2,0-0.4,0-0.6,0c0-1.9,0-3.8,0-5.7c0.2,0,0.4,0,0.7,0c0,0.3,0,0.7,0,1.1
			c0.5-0.9,1.2-1.3,2.2-1.2c0,0.2,0,0.4,0,0.6c-0.1,0-0.3,0-0.4,0.1c-1,0.1-1.8,1-1.8,2C36.6,87.4,36.6,88.4,36.6,89.5
			C36.6,89.4,36.6,89.4,36.6,89.5z"/>
		<path class="st11" d="M54.2,25.4c-1.7,0-3-1.3-3-3s1.3-3,3-3c1.6,0,3,1.4,3,3C57.2,24.1,55.9,25.4,54.2,25.4z"/>
		<path class="st12" d="M28.5,40.2c-1.6,0-3-1.3-3-3s1.3-3,3-3c1.6,0,3,1.4,3,3C31.5,38.9,30.1,40.2,28.5,40.2z"/>
		<path class="st13" d="M35.6,25c0-1.6,1.3-3,3-3c1.6,0,3,1.3,3,3c0,1.6-1.4,3-3,3C36.9,28,35.6,26.7,35.6,25z"/>
		<path class="st14" d="M50.2,38.3c0.5-1.7,1.5-2.9,3.1-3.7c1.1-0.5,2.3-0.7,3.5-0.4c2.3,0.4,4.2,2.4,4.5,4.8c0.3,2.1-0.6,5-4,6.3
			c3.4,1.3,4.3,4.2,4,6.3c-0.4,2.5-2.3,4.4-4.8,4.8c-1.4,0.2-2.8-0.1-4-0.9c-1.2-0.8-2-1.9-2.4-3.4c-0.5,1.5-1.3,2.6-2.5,3.4
			c-1.2,0.8-2.6,1.1-4,0.8c-2.6-0.4-4.4-2.4-4.8-5c-0.3-2.5,1.1-4.7,4-6.1c-1.4-0.5-2.5-1.3-3.2-2.5c-0.7-1.2-1-2.6-0.7-4
			c0.5-2.5,2.5-4.4,5-4.6C46.4,33.8,49.1,35,50.2,38.3z"/>
	</g>
</g>
</svg>
